# xmcd
#
# Track frame offsets: 
#        182
#        3592
#        11532
#        27047
#        39490
#        47857
#        50910
#        54047
#        61620
#        74800
#        88077
#        97722
#        101247
#        115010
#        130015
#        142680
#        152620
#        159895
#        165787
#        171125
#        176750
#        181805
#        190430
#        201667
#        211850
#        220257
#        229420
#        236992
#        238327
#        248482
#        263820
#        274572
#        286397
#        287875
#        291600
#        297762
#        316242
#        325255
#        334812
#
# Disc length: 4561 seconds
#
# Revision: 1
# Processed by: cddbd v1.5.2PL0 Copyright (c) Steve Scherf et al.
# Submitted via: ExactAudioCopy v0.95b4
#
DISCID=3c11cf27
DTITLE=Lefty Frizzell - Life's Like Poetry - Disc 11 of 12
DYEAR=1992
DGENRE=Country
TTITLE0=If You've Got the Money (I've Got the Time) (Transcription - C
TTITLE0=ountry Music Time - Navy)
TTITLE1=Look What Thoughts Will Do (Transcription - Country Music Time
TTITLE1=Navy)
TTITLE2=Shine, Shave, Shower (It's Saturday) (Transcription - Country 
TTITLE2=Music Time - Navy)
TTITLE3=I Want to Be With You Always (Transcription - Country Music Ti
TTITLE3=me - Navy)
TTITLE4=My Baby's Just Like Money (Transcription - Country Music Time 
TTITLE4=Navy)
TTITLE5=If You've Got the Money (I've Got the Time) (Transcription - C
TTITLE5=ountry Music Time - Navy)
TTITLE6=If You've Got the Money (I've Got the Time) (Transcription - C
TTITLE6=ountry Music Time - Navy)
TTITLE7=Why Should I Be Lonely? (Transcription - Country Music Time - 
TTITLE7=Navy)
TTITLE8=Ida Red Boogie (Transcription - Country Music Time - Navy)
TTITLE9=I Love You a Thousand Ways (Transcription - Country Music Time
TTITLE9=Navy)
TTITLE10=Always Late (With Your Kisses) (Transcription - Country Music
TTITLE10=Time - Navy)
TTITLE11=If You've Got the Money (I've Got the Time) (Transcription - 
TTITLE11=Country Music Time - Navy)
TTITLE12=Cigarettes and Coffee Blues (Transcription - Country Music Ti
TTITLE12=me - Airforce)
TTITLE13=The Long Black Veil (Transcription - Country Music Time - Air
TTITLE13=force)
TTITLE14=Chain Gang (Transcription - Country Music Time - Airforce) - 
TTITLE14=Freddie Hart
TTITLE15=Desert Blues (Transcription - Country Music Time - Airforce)
TTITLE16=Theme and If You've Got the Money (Transcription - Take Five - 
TTITLE16=Marine Corps)
TTITLE17=I Want to Be With You Always  (Transcription - Take Five - Ma
TTITLE17=rine Corps)
TTITLE18=My Bucket's Got a Hole in It  (Transcription - Take Five - Ma
TTITLE18=rine Corps)
TTITLE19=Always Late (With Your Kisses)  (Transcription - Take Five - 
TTITLE19=Marine Corps)
TTITLE20=Make That One for the Road a Cup of Coffee (Transcription - T
TTITLE20=ake Five - Marine Corps)
TTITLE21=Mom and Dad's Waltz (Transcription - Take Five - Marine Corps
TTITLE21=)
TTITLE22=Cigarettes and Coffee Blues (Transcription - Country Music Ti
TTITLE22=me - Airforce)
TTITLE23=(Darling) Let's Turn Back the Years (Transcription - Country 
TTITLE23=Music Time - Airforce)
TTITLE24=The Things We Used to Do (Transcription - Country Music Time 
TTITLE24=Airforce)
TTITLE25=Woodchopper's Ball (Transcription - Country Music Time - Airf
TTITLE25=orce)
TTITLE26=I Want to Be With You Always (Transcription - Country Music T
TTITLE26=ime - Airforce)
TTITLE27=Stay All Night (Extract) (Transcription - Country Music Time 
TTITLE27=Airforce)
TTITLE28=Somebody's Pushing  (Transcription - Country Music Time - Air
TTITLE28=force)
TTITLE29=The Long Black Veil (Transcription - Country Music Time - Air
TTITLE29=force)
TTITLE30=Mona Lisa (Transcription - Country Music Time - Airforce) - D
TTITLE30=avid Frizzell
TTITLE31=I Want to Be With You Always (Transcription - Country Music T
TTITLE31=ime - Airforce)
TTITLE32=Stay All Night (Extract) (Transcription - Country Music Time 
TTITLE32=Airforce)
TTITLE33=If You've Got the Money (I've Got the Time)
TTITLE34=Sunday Down in Tennessee
TTITLE35=A King Without a Queen [& Interview] 
TTITLE36=Mom and Dad's Waltz
TTITLE37=Travelin' Blues 
TTITLE38=If You've Got the Money (I've Got the Time) (Live)
EXTD=Life's Like Poetry - Disc 11 of 12\n© 1992 Bear Family Records
EXTT0=
EXTT1=
EXTT2=
EXTT3=
EXTT4=
EXTT5=
EXTT6=
EXTT7=
EXTT8=
EXTT9=
EXTT10=
EXTT11=
EXTT12=
EXTT13=
EXTT14=
EXTT15=
EXTT16=
EXTT17=
EXTT18=
EXTT19=
EXTT20=
EXTT21=
EXTT22=
EXTT23=
EXTT24=
EXTT25=
EXTT26=
EXTT27=
EXTT28=
EXTT29=
EXTT30=
EXTT31=
EXTT32=
EXTT33=
EXTT34=
EXTT35=
EXTT36=
EXTT37=
EXTT38=
PLAYORDER=
